<svg width="0" height="0" class="hidden">
  <symbol fill="none" xmlns="http://www.w3.org/2000/svg" viewBox="0 0 43 43" id="minus_plus">
    <rect x="0.75" y="0.75" width="41.5" height="41.5" rx="20.75" stroke="#323F47" stroke-width="1.5"></rect>
    <path d="M13.8214 21.5H29.1785" stroke="#323F47" stroke-width="1.8" stroke-linecap="round" stroke-linejoin="round"></path>
  </symbol>
  <symbol fill="none" xmlns="http://www.w3.org/2000/svg" viewBox="0 0 43 43" id="plus_minuc">
    <rect x="0.75" y="0.75" width="41.5" height="41.5" rx="20.75" stroke="#323F47" stroke-width="1.5"></rect>
    <path d="M21.5 13.8215V29.1787" stroke="#323F47" stroke-width="1.8" stroke-linecap="round" stroke-linejoin="round"></path>
    <path d="M13.8214 21.5H29.1785" stroke="#323F47" stroke-width="1.8" stroke-linecap="round" stroke-linejoin="round"></path>
  </symbol>
  <symbol fill="none" xmlns="http://www.w3.org/2000/svg" viewBox="0 0 20 20" id="chevron-down">
    <path d="M5 7.5L10 12.5L15 7.5" stroke="white" stroke-width="2" stroke-linecap="round" stroke-linejoin="round"></path>
  </symbol>
  <symbol fill="none" xmlns="http://www.w3.org/2000/svg" viewBox="0 0 21 20" id="upload">
    <path d="M18 12.5V15.8333C18 16.2754 17.8244 16.6993 17.5118 17.0118C17.1993 17.3244 16.7754 17.5 16.3333 17.5H4.66667C4.22464 17.5 3.80072 17.3244 3.48816 17.0118C3.17559 16.6993 3 16.2754 3 15.8333V12.5" stroke="#2F2F2F" stroke-width="1.8" stroke-linecap="round" stroke-linejoin="round"></path>
    <path d="M14.6668 6.66667L10.5002 2.5L6.3335 6.66667" stroke="#2F2F2F" stroke-width="1.8" stroke-linecap="round" stroke-linejoin="round"></path>
    <path d="M10.5 2.5V12.5" stroke="#2F2F2F" stroke-width="1.8" stroke-linecap="round" stroke-linejoin="round"></path>
  </symbol>
  <symbol fill="none" xmlns="http://www.w3.org/2000/svg" viewBox="0 0 28 28" id="x">
    <path d="M21 7L7 21" stroke="#2F2F2F" stroke-width="3" stroke-linecap="round" stroke-linejoin="round"></path>
    <path d="M7 7L21 21" stroke="#2F2F2F" stroke-width="3" stroke-linecap="round" stroke-linejoin="round"></path>
  </symbol>
  <symbol fill="none" xmlns="http://www.w3.org/2000/svg" viewBox="0 0 24 24" id="pie-chart">
    <g opacity="0.4">
      <path d="M17.2 14C17.477 14 17.6155 14 17.7278 14.0615C17.8204 14.1123 17.9065 14.2076 17.9478 14.3048C17.9978 14.4226 17.9852 14.548 17.96 14.7987C17.8296 16.0988 17.3822 17.3515 16.6518 18.4446C15.7727 19.7602 14.5233 20.7856 13.0615 21.3911C11.5997 21.9966 9.99113 22.155 8.43928 21.8463C6.88743 21.5376 5.46197 20.7757 4.34315 19.6569C3.22433 18.5381 2.4624 17.1126 2.15372 15.5608C1.84504 14.0089 2.00347 12.4004 2.60897 10.9386C3.21447 9.47676 4.23985 8.22733 5.55544 7.34828C6.64856 6.61788 7.90125 6.17044 9.20131 6.04C9.45207 6.01484 9.57745 6.00226 9.69528 6.05225C9.79249 6.09349 9.88776 6.17968 9.9385 6.27229C10 6.38454 10 6.52304 10 6.80004V13.2C10 13.4801 10 13.6201 10.0545 13.727C10.1024 13.8211 10.1789 13.8976 10.273 13.9455C10.38 14 10.52 14 10.8 14H17.2Z" stroke="#323F47" stroke-width="2" stroke-linecap="round" stroke-linejoin="round"></path>
      <path d="M14 2.80005C14 2.52304 14 2.38454 14.0615 2.27229C14.1122 2.17969 14.2075 2.0935 14.3047 2.05226C14.4225 2.00226 14.5479 2.01484 14.7987 2.03999C16.6271 2.22339 18.346 3.03235 19.6569 4.34319C20.9677 5.65404 21.7767 7.37295 21.9601 9.20135C21.9852 9.45212 21.9978 9.5775 21.9478 9.69533C21.9066 9.79254 21.8204 9.88781 21.7278 9.93854C21.6155 10 21.477 10 21.2 10L14.8 10C14.52 10 14.38 10 14.273 9.94555C14.1789 9.89761 14.1024 9.82112 14.0545 9.72704C14 9.62009 14 9.48007 14 9.20005L14 2.80005Z" stroke="#9BE1A0" stroke-width="2" stroke-linecap="round" stroke-linejoin="round"></path>
    </g>
  </symbol>
  <symbol fill="none" xmlns="http://www.w3.org/2000/svg" viewBox="0 0 18 18" id="chevron-right">
    <path d="M6.75 13.5L11.25 9L6.75 4.5" stroke="#323F47" stroke-width="2" stroke-linecap="round" stroke-linejoin="round"></path>
  </symbol>
  <symbol fill="none" xmlns="http://www.w3.org/2000/svg" viewBox="0 0 18 18" id="chevron-left">
    <path d="M11.25 13.5L6.75 9L11.25 4.5" stroke="#323F47" stroke-width="2" stroke-linecap="round" stroke-linejoin="round"></path>
  </symbol>
  <symbol fill="none" xmlns="http://www.w3.org/2000/svg" viewBox="0 0 44 45" id="mage_water-glass-fill">
    <path d="M37.9056 7.34867C37.7726 6.89785 37.5482 6.48177 37.2473 6.12836C36.9464 5.77495 36.576 5.4924 36.1611 5.29969C35.749 5.09981 35.2988 4.99886 34.8438 5.00434H9.22806C8.77332 4.97782 8.31966 5.07318 7.91078 5.28123C7.48682 5.47608 7.10986 5.7661 6.80711 6.13036C6.50635 6.48316 6.28179 6.89854 6.14847 7.34867C6.01051 7.7953 5.96799 8.26773 6.02386 8.73312L8.94324 34.5762C9.13905 36.3446 9.9579 37.9727 11.2396 39.1541C12.4924 40.334 14.122 40.9916 15.8145 41H28.2752C29.9732 40.9926 31.6087 40.3353 32.8679 39.1541C34.1328 37.9613 34.9416 36.3363 35.1465 34.5762L36.7308 20.0487V19.8272L37.959 8.75158C38.0279 8.28471 38.0098 7.80846 37.9056 7.34867ZM19.9265 35.6837H18.1464C16.9933 35.6172 15.8956 35.1489 15.0312 34.3546C14.1699 33.5498 13.6038 32.4605 13.4291 31.2719L13.0019 28.0969C12.9471 27.6129 13.0771 27.1259 13.3643 26.7402C13.6514 26.3544 14.0728 26.1006 14.5382 26.033C15.0036 25.9654 15.4761 26.0895 15.8543 26.3787C16.2326 26.6678 16.4867 27.0991 16.5621 27.5801L16.9893 30.7182C17.0372 31.0612 17.2013 31.3753 17.4522 31.6042C17.7009 31.8409 18.0227 31.9783 18.36 31.9919H20.1401C20.6122 31.9919 21.065 32.1863 21.3989 32.5325C21.7327 32.8787 21.9202 33.3482 21.9202 33.8378C21.9202 34.3274 21.7327 34.7969 21.3989 35.1431C21.065 35.4892 20.6122 35.6837 20.1401 35.6837H19.9265ZM34.1674 18.6458C30.4114 19.4026 27.2072 19.5503 23.8072 16.7998C19.5883 13.3479 14.4794 14.4555 9.56628 16.2645L8.67622 8.43777C8.65871 8.35881 8.65871 8.27676 8.67622 8.1978C8.70045 8.12024 8.74334 8.05036 8.80083 7.99475C8.84296 7.92662 8.9055 7.87474 8.97884 7.84707C9.04867 7.82655 9.12263 7.82655 9.19246 7.84707H35.0397C35.1064 7.88579 35.1666 7.93569 35.2177 7.99475C35.2711 8.05013 35.3067 8.12212 35.3245 8.1978C35.3516 8.28165 35.3516 8.37238 35.3245 8.45623L34.1674 18.6458Z" fill="#9BE1A0"></path>
  </symbol>
  <symbol fill="none" xmlns="http://www.w3.org/2000/svg" viewBox="0 0 16 16" id="trash-04">
    <path d="M6 2H10" stroke="#323F47" stroke-width="1.5" stroke-linecap="round" stroke-linejoin="round"></path>
    <path d="M2 4H14M12.6667 4L12.1991 11.0129C12.129 12.065 12.0939 12.5911 11.8667 12.99C11.6666 13.3412 11.3648 13.6235 11.0011 13.7998C10.588 14 10.0607 14 9.00623 14H6.99377C5.93927 14 5.41202 14 4.99889 13.7998C4.63517 13.6235 4.33339 13.3412 4.13332 12.99C3.90607 12.5911 3.871 12.065 3.80086 11.0129L3.33333 4" stroke="#323F47" stroke-width="1.8" stroke-linecap="round" stroke-linejoin="round"></path>
  </symbol>
  <symbol fill="none" xmlns="http://www.w3.org/2000/svg" viewBox="0 0 16 16" id="edit-2">
    <g clip-path="url(#clip0_19_2368)">
      <path d="M11.3335 1.99998C11.5086 1.82488 11.7165 1.68599 11.9452 1.59123C12.174 1.49647 12.4192 1.44769 12.6668 1.44769C12.9145 1.44769 13.1596 1.49647 13.3884 1.59123C13.6172 1.68599 13.8251 1.82488 14.0002 1.99998C14.1753 2.17507 14.3142 2.38294 14.4089 2.61172C14.5037 2.84049 14.5524 3.08569 14.5524 3.33331C14.5524 3.58093 14.5037 3.82613 14.4089 4.05491C14.3142 4.28368 14.1753 4.49155 14.0002 4.66664L5.00016 13.6666L1.3335 14.6666L2.3335 11L11.3335 1.99998Z" stroke="#323F47" stroke-width="1.8" stroke-linecap="round" stroke-linejoin="round"></path>
    </g>
    <defs>
      <clipPath id="clip0_19_2368">
        <rect width="16" height="16" fill="white"></rect>
      </clipPath>
    </defs>
  </symbol>
  <symbol fill="none" xmlns="http://www.w3.org/2000/svg" viewBox="0 0 24 24" id="plus">
    <path d="M12 5V19" stroke="white" stroke-width="2" stroke-linecap="round" stroke-linejoin="round"></path>
    <path d="M5 12H19" stroke="white" stroke-width="2" stroke-linecap="round" stroke-linejoin="round"></path>
  </symbol>
  <symbol fill="none" xmlns="http://www.w3.org/2000/svg" viewBox="0 0 20 20" id="eye-off">
    <g clip-path="url(#clip0_16_2189)">
      <path d="M14.9497 14.9499C13.5252 16.0358 11.7906 16.6373 9.99968 16.6666C4.16634 16.6666 0.833008 9.99994 0.833008 9.99994C1.86958 8.06819 3.30729 6.38045 5.04967 5.04994M8.24968 3.53327C8.82329 3.39901 9.41056 3.33189 9.99968 3.33327C15.833 3.33327 19.1663 9.99994 19.1663 9.99994C18.6605 10.9463 18.0572 11.8372 17.3663 12.6583M11.7663 11.7666C11.5375 12.0122 11.2615 12.2092 10.9548 12.3459C10.6481 12.4825 10.3171 12.556 9.98142 12.5619C9.64574 12.5678 9.31231 12.5061 9.00102 12.3803C8.68972 12.2546 8.40694 12.0675 8.16955 11.8301C7.93215 11.5927 7.745 11.3099 7.61927 10.9986C7.49353 10.6873 7.43178 10.3539 7.4377 10.0182C7.44363 9.68252 7.5171 9.35148 7.65374 9.04481C7.79038 8.73815 7.98739 8.46215 8.23301 8.23327" stroke="#2F2F2F" stroke-width="1.8" stroke-linecap="round" stroke-linejoin="round"></path>
      <path d="M0.833008 0.833496L19.1663 19.1668" stroke="#2F2F2F" stroke-width="1.8" stroke-linecap="round" stroke-linejoin="round"></path>
    </g>
    <defs>
      <clipPath id="clip0_16_2189">
        <rect width="20" height="20" fill="white"></rect>
      </clipPath>
    </defs>
  </symbol>
  <symbol fill="none" xmlns="http://www.w3.org/2000/svg" viewBox="0 0 155 24" id="logo">
    <path d="M13.0493 17.024H6.76128L5.75328 20H1.45728L7.55328 3.152H12.3053L18.4013 20H14.0573L13.0493 17.024ZM11.9933 13.856L9.90528 7.688L7.84128 13.856H11.9933ZM32.0166 22.88L29.8566 19.976C29.2166 20.104 28.5926 20.168 27.9846 20.168C26.4006 20.168 24.9446 19.8 23.6166 19.064C22.3046 18.328 21.2566 17.304 20.4726 15.992C19.7046 14.664 19.3206 13.176 19.3206 11.528C19.3206 9.88 19.7046 8.4 20.4726 7.088C21.2566 5.776 22.3046 4.752 23.6166 4.016C24.9446 3.28 26.4006 2.912 27.9846 2.912C29.5686 2.912 31.0166 3.28 32.3286 4.016C33.6566 4.752 34.6966 5.776 35.4486 7.088C36.2166 8.4 36.6006 9.88 36.6006 11.528C36.6006 12.968 36.3046 14.288 35.7126 15.488C35.1366 16.672 34.3286 17.656 33.2886 18.44L36.9846 22.88H32.0166ZM23.5206 11.528C23.5206 13.016 23.9206 14.208 24.7206 15.104C25.5366 15.984 26.6246 16.424 27.9846 16.424C29.3286 16.424 30.4006 15.976 31.2006 15.08C32.0166 14.184 32.4246 13 32.4246 11.528C32.4246 10.04 32.0166 8.856 31.2006 7.976C30.4006 7.08 29.3286 6.632 27.9846 6.632C26.6246 6.632 25.5366 7.072 24.7206 7.952C23.9206 8.832 23.5206 10.024 23.5206 11.528ZM42.7227 3.152V13.232C42.7227 14.24 42.9707 15.016 43.4667 15.56C43.9627 16.104 44.6907 16.376 45.6507 16.376C46.6107 16.376 47.3467 16.104 47.8587 15.56C48.3707 15.016 48.6267 14.24 48.6267 13.232V3.152H52.7307V13.208C52.7307 14.712 52.4107 15.984 51.7707 17.024C51.1307 18.064 50.2667 18.848 49.1787 19.376C48.1067 19.904 46.9067 20.168 45.5787 20.168C44.2507 20.168 43.0587 19.912 42.0027 19.4C40.9627 18.872 40.1387 18.088 39.5307 17.048C38.9227 15.992 38.6187 14.712 38.6187 13.208V3.152H42.7227ZM65.8605 17.024H59.5725L58.5645 20H54.2685L60.3645 3.152H65.1165L71.2125 20H66.8685L65.8605 17.024ZM64.8045 13.856L62.7165 7.688L60.6525 13.856H64.8045ZM84.9478 3.152V6.44H80.4838V20H76.3798V6.44H71.9158V3.152H84.9478ZM95.3595 20L91.8555 13.64H90.8715V20H86.7675V3.152H93.6555C94.9835 3.152 96.1115 3.384 97.0395 3.848C97.9835 4.312 98.6875 4.952 99.1515 5.768C99.6155 6.568 99.8475 7.464 99.8475 8.456C99.8475 9.576 99.5275 10.576 98.8875 11.456C98.2635 12.336 97.3355 12.96 96.1035 13.328L99.9915 20H95.3595ZM90.8715 10.736H93.4155C94.1675 10.736 94.7275 10.552 95.0955 10.184C95.4795 9.816 95.6715 9.296 95.6715 8.624C95.6715 7.984 95.4795 7.48 95.0955 7.112C94.7275 6.744 94.1675 6.56 93.4155 6.56H90.8715V10.736ZM112.672 17.024H106.384L105.376 20H101.08L107.176 3.152H111.928L118.024 20H113.68L112.672 17.024ZM111.616 13.856L109.528 7.688L107.464 13.856H111.616ZM118.943 11.552C118.943 9.888 119.303 8.408 120.023 7.112C120.743 5.8 121.743 4.784 123.023 4.064C124.319 3.328 125.783 2.96 127.415 2.96C129.415 2.96 131.127 3.488 132.551 4.544C133.975 5.6 134.927 7.04 135.407 8.864H130.895C130.559 8.16 130.079 7.624 129.455 7.256C128.847 6.888 128.151 6.704 127.367 6.704C126.103 6.704 125.079 7.144 124.295 8.024C123.511 8.904 123.119 10.08 123.119 11.552C123.119 13.024 123.511 14.2 124.295 15.08C125.079 15.96 126.103 16.4 127.367 16.4C128.151 16.4 128.847 16.216 129.455 15.848C130.079 15.48 130.559 14.944 130.895 14.24H135.407C134.927 16.064 133.975 17.504 132.551 18.56C131.127 19.6 129.415 20.12 127.415 20.12C125.783 20.12 124.319 19.76 123.023 19.04C121.743 18.304 120.743 17.288 120.023 15.992C119.303 14.696 118.943 13.216 118.943 11.552ZM147.448 20L141.784 12.56V20H137.68V3.152H141.784V10.544L147.4 3.152H152.224L145.696 11.408L152.464 20H147.448Z" fill="#323F47"></path>
  </symbol>
  <symbol xmlns="http://www.w3.org/2000/svg" viewBox="0 0 4 18" id="icon-alert">
  <path d="M0.579343 10.4315C0.647687 11.1434 0.763562 11.6724 0.923031 12.0214C1.08447 12.3693 1.37106 12.5429 1.78478 12.5429C1.86212 12.5429 1.93131 12.5308 1.99994 12.5167C2.07025 12.5308 2.13916 12.5429 2.21706 12.5429C2.62966 12.5429 2.91709 12.3693 3.07769 12.0214C3.238 11.6724 3.35191 11.1434 3.42166 10.4315L3.78897 4.93532C3.85731 3.86404 3.89219 3.09538 3.89219 2.62879C3.89219 1.99372 3.72653 1.49816 3.39409 1.14238C3.06053 0.7866 2.62234 0.609131 2.07953 0.609131C2.05056 0.609131 2.02891 0.6156 2.0005 0.616725C1.9735 0.6156 1.95128 0.609131 1.92316 0.609131C1.37922 0.609131 0.941875 0.7866 0.608875 1.14238C0.276156 1.49872 0.109375 1.99457 0.109375 2.62907C0.109375 3.09566 0.143406 3.86432 0.212875 4.9356L0.579343 10.4315ZM2.01428 14.5518C1.48722 14.5518 1.03947 14.718 0.667656 15.0505C0.296125 15.3832 0.109937 15.7871 0.109937 16.2613C0.109937 16.7965 0.298375 17.2178 0.672437 17.5238C1.04819 17.8298 1.48637 17.9828 1.98728 17.9828C2.49719 17.9828 2.94184 17.832 3.32209 17.5297C3.70178 17.2282 3.89162 16.8046 3.89162 16.2618C3.89162 15.7876 3.70994 15.3838 3.34656 15.051C2.98319 14.718 2.53909 14.5518 2.01344 14.5518" />
</symbol>
</svg>