<svg width="0" height="0" class="hidden">
  <symbol fill="none" xmlns="http://www.w3.org/2000/svg" viewBox="0 0 20 20" id="eye">
    <g clip-path="url(#clip0_72_8574)">
      <path d="M0.833008 9.99998C0.833008 9.99998 4.16634 3.33331 9.99967 3.33331C15.833 3.33331 19.1663 9.99998 19.1663 9.99998C19.1663 9.99998 15.833 16.6666 9.99967 16.6666C4.16634 16.6666 0.833008 9.99998 0.833008 9.99998Z" stroke="currentColor" stroke-width="1.8" stroke-linecap="round" stroke-linejoin="round"></path>
      <path d="M10 12.5C11.3807 12.5 12.5 11.3807 12.5 10C12.5 8.61929 11.3807 7.5 10 7.5C8.61929 7.5 7.5 8.61929 7.5 10C7.5 11.3807 8.61929 12.5 10 12.5Z" stroke="currentColor" stroke-width="1.8" stroke-linecap="round" stroke-linejoin="round"></path>
    </g>
    <defs>
      <clipPath id="clip0_72_8574">
        <rect width="20" height="20" fill="white"></rect>
      </clipPath>
    </defs>
  </symbol>
  <symbol fill="none" xmlns="http://www.w3.org/2000/svg" viewBox="0 0 24 24" id="plus-white">
    <path d="M12 5V19" stroke="currentColor" stroke-width="2" stroke-linecap="round" stroke-linejoin="round"></path>
    <path d="M5 12H19" stroke="currentColor" stroke-width="2" stroke-linecap="round" stroke-linejoin="round"></path>
  </symbol>
  <symbol fill="none" xmlns="http://www.w3.org/2000/svg" viewBox="0 0 16 17" id="log-out">
    <path d="M6 14.5H3.33333C2.97971 14.5 2.64057 14.3595 2.39052 14.1095C2.14048 13.8594 2 13.5203 2 13.1667V3.83333C2 3.47971 2.14048 3.14057 2.39052 2.89052C2.64057 2.64048 2.97971 2.5 3.33333 2.5H6" stroke="currentColor"  stroke-width="1.5" stroke-linecap="round" stroke-linejoin="round"></path>
    <path d="M10.6665 11.8333L13.9998 8.49996L10.6665 5.16663" stroke="currentColor"  stroke-width="1.5" stroke-linecap="round" stroke-linejoin="round"></path>
    <path d="M14 8.5H6" stroke="currentColor" stroke-width="1.5" stroke-linecap="round" stroke-linejoin="round"></path>
  </symbol>
  <symbol fill="none" xmlns="http://www.w3.org/2000/svg" viewBox="0 0 16 17" id="settings">
    <g clip-path="url(#clip0_25_4287)">
      <path d="M8 10.5C9.10457 10.5 10 9.60457 10 8.5C10 7.39543 9.10457 6.5 8 6.5C6.89543 6.5 6 7.39543 6 8.5C6 9.60457 6.89543 10.5 8 10.5Z" stroke="currentColor" stroke-width="1.5" stroke-linecap="round" stroke-linejoin="round"></path>
      <path d="M12.9332 10.5C12.8444 10.701 12.818 10.9241 12.8572 11.1404C12.8964 11.3566 12.9995 11.5562 13.1532 11.7133L13.1932 11.7533C13.3171 11.8771 13.4155 12.0242 13.4826 12.186C13.5497 12.3479 13.5842 12.5214 13.5842 12.6966C13.5842 12.8718 13.5497 13.0454 13.4826 13.2072C13.4155 13.3691 13.3171 13.5161 13.1932 13.64C13.0693 13.7639 12.9223 13.8623 12.7604 13.9294C12.5986 13.9965 12.4251 14.031 12.2498 14.031C12.0746 14.031 11.9011 13.9965 11.7393 13.9294C11.5774 13.8623 11.4303 13.7639 11.3065 13.64L11.2665 13.6C11.1094 13.4463 10.9098 13.3432 10.6936 13.304C10.4773 13.2647 10.2542 13.2912 10.0532 13.38C9.85599 13.4645 9.68783 13.6048 9.56938 13.7837C9.45093 13.9625 9.38736 14.1721 9.3865 14.3866V14.5C9.3865 14.8536 9.24603 15.1927 8.99598 15.4428C8.74593 15.6928 8.40679 15.8333 8.05317 15.8333C7.69955 15.8333 7.36041 15.6928 7.11036 15.4428C6.86031 15.1927 6.71984 14.8536 6.71984 14.5V14.44C6.71468 14.2193 6.64325 14.0053 6.51484 13.8258C6.38644 13.6462 6.20699 13.5095 5.99984 13.4333C5.79876 13.3446 5.57571 13.3181 5.35945 13.3573C5.14318 13.3965 4.94362 13.4996 4.7865 13.6533L4.7465 13.6933C4.62267 13.8173 4.47562 13.9156 4.31376 13.9827C4.15189 14.0498 3.97839 14.0843 3.80317 14.0843C3.62795 14.0843 3.45445 14.0498 3.29258 13.9827C3.13072 13.9156 2.98367 13.8173 2.85984 13.6933C2.73587 13.5695 2.63752 13.4224 2.57042 13.2605C2.50333 13.0987 2.46879 12.9252 2.46879 12.75C2.46879 12.5747 2.50333 12.4012 2.57042 12.2394C2.63752 12.0775 2.73587 11.9305 2.85984 11.8066L2.89984 11.7666C3.05353 11.6095 3.15663 11.4099 3.19584 11.1937C3.23505 10.9774 3.20858 10.7544 3.11984 10.5533C3.03533 10.3561 2.89501 10.1879 2.71615 10.0695C2.53729 9.95105 2.3277 9.88748 2.11317 9.88663H1.99984C1.64622 9.88663 1.30708 9.74615 1.05703 9.4961C0.80698 9.24605 0.666504 8.90692 0.666504 8.55329C0.666504 8.19967 0.80698 7.86053 1.05703 7.61048C1.30708 7.36044 1.64622 7.21996 1.99984 7.21996H2.05984C2.2805 7.2148 2.49451 7.14337 2.67404 7.01497C2.85357 6.88656 2.99031 6.70712 3.0665 6.49996C3.15525 6.29888 3.18172 6.07583 3.14251 5.85957C3.10329 5.6433 3.0002 5.44375 2.8465 5.28663L2.8065 5.24663C2.68254 5.1228 2.58419 4.97574 2.51709 4.81388C2.44999 4.65202 2.41546 4.47851 2.41546 4.30329C2.41546 4.12807 2.44999 3.95457 2.51709 3.79271C2.58419 3.63084 2.68254 3.48379 2.8065 3.35996C2.93033 3.23599 3.07739 3.13765 3.23925 3.07055C3.40111 3.00345 3.57462 2.96891 3.74984 2.96891C3.92506 2.96891 4.09856 3.00345 4.26042 3.07055C4.42229 3.13765 4.56934 3.23599 4.69317 3.35996L4.73317 3.39996C4.89029 3.55365 5.08985 3.65675 5.30611 3.69596C5.52238 3.73518 5.74543 3.7087 5.9465 3.61996H5.99984C6.19702 3.53545 6.36518 3.39513 6.48363 3.21627C6.60208 3.03741 6.66565 2.82782 6.6665 2.61329V2.49996C6.6665 2.14634 6.80698 1.8072 7.05703 1.55715C7.30708 1.3071 7.64622 1.16663 7.99984 1.16663C8.35346 1.16663 8.6926 1.3071 8.94265 1.55715C9.1927 1.8072 9.33317 2.14634 9.33317 2.49996V2.55996C9.33403 2.77448 9.39759 2.98408 9.51604 3.16294C9.63449 3.3418 9.80266 3.48212 9.99984 3.56663C10.2009 3.65537 10.424 3.68184 10.6402 3.64263C10.8565 3.60342 11.0561 3.50032 11.2132 3.34663L11.2532 3.30663C11.377 3.18266 11.5241 3.08431 11.6859 3.01721C11.8478 2.95011 12.0213 2.91558 12.1965 2.91558C12.3717 2.91558 12.5452 2.95011 12.7071 3.01721C12.869 3.08431 13.016 3.18266 13.1398 3.30663C13.2638 3.43046 13.3622 3.57751 13.4293 3.73937C13.4964 3.90124 13.5309 4.07474 13.5309 4.24996C13.5309 4.42518 13.4964 4.59868 13.4293 4.76055C13.3622 4.92241 13.2638 5.06946 13.1398 5.19329L13.0998 5.23329C12.9461 5.39041 12.843 5.58997 12.8038 5.80623C12.7646 6.0225 12.7911 6.24555 12.8798 6.44663V6.49996C12.9643 6.69714 13.1047 6.8653 13.2835 6.98376C13.4624 7.10221 13.672 7.16577 13.8865 7.16663H13.9998C14.3535 7.16663 14.6926 7.3071 14.9426 7.55715C15.1927 7.8072 15.3332 8.14634 15.3332 8.49996C15.3332 8.85358 15.1927 9.19272 14.9426 9.44277C14.6926 9.69282 14.3535 9.83329 13.9998 9.83329H13.9398C13.7253 9.83415 13.5157 9.89771 13.3369 10.0162C13.158 10.1346 13.0177 10.3028 12.9332 10.5Z" stroke="currentColor" stroke-width="1.5" stroke-linecap="round" stroke-linejoin="round"></path>
    </g>
    <defs>
      <clipPath id="clip0_25_4287">
        <rect width="16" height="16" fill="white" transform="translate(0 0.5)"></rect>
      </clipPath>
    </defs>
  </symbol>
  <symbol fill="none" xmlns="http://www.w3.org/2000/svg" viewBox="0 0 21 20" id="upload">
    <path d="M18 12.5V15.8333C18 16.2754 17.8244 16.6993 17.5118 17.0118C17.1993 17.3244 16.7754 17.5 16.3333 17.5H4.66667C4.22464 17.5 3.80072 17.3244 3.48816 17.0118C3.17559 16.6993 3 16.2754 3 15.8333V12.5" stroke="currentColor" stroke-width="1.8" stroke-linecap="round" stroke-linejoin="round"></path>
    <path d="M14.6668 6.66667L10.5002 2.5L6.3335 6.66667" stroke="currentColor" stroke-width="1.8" stroke-linecap="round" stroke-linejoin="round"></path>
    <path d="M10.5 2.5V12.5" stroke="currentColor" stroke-width="1.8" stroke-linecap="round" stroke-linejoin="round"></path>
  </symbol>
  <symbol fill="none" xmlns="http://www.w3.org/2000/svg" viewBox="0 0 28 28" id="x">
    <path d="M21 7L7 21" stroke="currentColor" stroke-width="3" stroke-linecap="round" stroke-linejoin="round"></path>
    <path d="M7 7L21 21" stroke="currentColor" stroke-width="3" stroke-linecap="round" stroke-linejoin="round"></path>
  </symbol>
  <symbol fill="none" xmlns="http://www.w3.org/2000/svg" viewBox="0 0 43 43" id="plus-minus">
    <rect x="0.75" y="0.75" width="41.5" height="41.5" rx="20.75" stroke="currentColor" stroke-width="1.5"></rect>
    <path d="M21.5 13.8215V29.1787" stroke="currentColor" stroke-width="1.8" stroke-linecap="round" stroke-linejoin="round"></path>
    <path d="M13.8213 21.5H29.1784" stroke="currentColor" stroke-width="1.8" stroke-linecap="round" stroke-linejoin="round"></path>
  </symbol>
  <symbol fill="none" xmlns="http://www.w3.org/2000/svg" viewBox="0 0 43 43" id="minus-plus">
    <rect x="0.75" y="0.75" width="41.5" height="41.5" rx="20.75" stroke="currentColor" stroke-width="1.5"></rect>
    <path d="M13.8213 21.5H29.1784" stroke="currentColor" stroke-width="1.8" stroke-linecap="round" stroke-linejoin="round"></path>
  </symbol>
  <symbol fill="none" xmlns="http://www.w3.org/2000/svg" viewBox="0 0 20 20" id="chevron-down">
    <path d="M5 7.5L10 12.5L15 7.5" stroke="currentColor" stroke-width="2" stroke-linecap="round" stroke-linejoin="round"></path>
  </symbol>
  <symbol fill="none" xmlns="http://www.w3.org/2000/svg" viewBox="0 0 20 20" id="chevron-up">
    <path d="M5 12.5L10 7.5L15 12.5" stroke="currentColor" stroke-width="2" stroke-linecap="round" stroke-linejoin="round"></path>
  </symbol>
  <symbol fill="none" xmlns="http://www.w3.org/2000/svg" viewBox="0 0 30 30" id="plus-green">
    <rect width="30" height="30" rx="15" fill="none"></rect>
    <path d="M15 9.64282V20.3571" stroke="currentColor" stroke-width="1.5" stroke-linecap="round" stroke-linejoin="round"></path>
    <path d="M9.64307 15H20.3574" stroke="currentColor" stroke-width="1.5" stroke-linecap="round" stroke-linejoin="round"></path>
  </symbol>
  <symbol fill="none" xmlns="http://www.w3.org/2000/svg" viewBox="0 0 16 16" id="trash">
    <path d="M6 2H10" stroke="currentColor" stroke-width="1.5" stroke-linecap="round" stroke-linejoin="round"></path>
    <path d="M2 4H14M12.6667 4L12.1991 11.0129C12.129 12.065 12.0939 12.5911 11.8667 12.99C11.6666 13.3412 11.3648 13.6235 11.0011 13.7998C10.588 14 10.0607 14 9.00623 14H6.99377C5.93927 14 5.41202 14 4.99889 13.7998C4.63517 13.6235 4.33339 13.3412 4.13332 12.99C3.90607 12.5911 3.871 12.065 3.80086 11.0129L3.33333 4" stroke="currentColor" stroke-width="1.8" stroke-linecap="round" stroke-linejoin="round"></path>
  </symbol>
  <symbol fill="none" xmlns="http://www.w3.org/2000/svg" viewBox="0 0 16 16" id="edit-2">
    <g clip-path="url(#clip0_54_1062)">
      <path d="M11.3335 2.00004C11.5086 1.82494 11.7165 1.68605 11.9452 1.59129C12.174 1.49653 12.4192 1.44775 12.6668 1.44775C12.9145 1.44775 13.1596 1.49653 13.3884 1.59129C13.6172 1.68605 13.8251 1.82494 14.0002 2.00004C14.1753 2.17513 14.3142 2.383 14.4089 2.61178C14.5037 2.84055 14.5524 3.08575 14.5524 3.33337C14.5524 3.58099 14.5037 3.82619 14.4089 4.05497C14.3142 4.28374 14.1753 4.49161 14.0002 4.6667L5.00016 13.6667L1.3335 14.6667L2.3335 11L11.3335 2.00004Z" stroke="currentColor" stroke-width="1.8" stroke-linecap="round" stroke-linejoin="round"></path>
    </g>
    <defs>
      <clipPath id="clip0_54_1062">
        <rect width="16" height="16" fill="white"></rect>
      </clipPath>
    </defs>
  </symbol>
  <symbol fill="none" xmlns="http://www.w3.org/2000/svg" viewBox="0 0 44 45" id="water-glass">
    <path d="M37.9056 7.34867C37.7726 6.89785 37.5482 6.48177 37.2473 6.12836C36.9464 5.77495 36.576 5.4924 36.1611 5.29969C35.749 5.09981 35.2988 4.99886 34.8438 5.00434H9.22806C8.77332 4.97782 8.31966 5.07318 7.91078 5.28123C7.48682 5.47608 7.10986 5.7661 6.80711 6.13036C6.50635 6.48316 6.28179 6.89854 6.14847 7.34867C6.01051 7.7953 5.96799 8.26773 6.02386 8.73312L8.94324 34.5762C9.13905 36.3446 9.9579 37.9727 11.2396 39.1541C12.4924 40.334 14.122 40.9916 15.8145 41H28.2752C29.9732 40.9926 31.6087 40.3353 32.8679 39.1541C34.1328 37.9613 34.9416 36.3363 35.1465 34.5762L36.7308 20.0487V19.8272L37.959 8.75158C38.0279 8.28471 38.0098 7.80846 37.9056 7.34867ZM19.9265 35.6837H18.1464C16.9933 35.6172 15.8956 35.1489 15.0312 34.3546C14.1699 33.5498 13.6038 32.4605 13.4291 31.2719L13.0019 28.0969C12.9471 27.6129 13.0771 27.1259 13.3643 26.7402C13.6514 26.3544 14.0728 26.1006 14.5382 26.033C15.0036 25.9654 15.4761 26.0895 15.8543 26.3787C16.2326 26.6678 16.4867 27.0991 16.5621 27.5801L16.9893 30.7182C17.0372 31.0612 17.2013 31.3753 17.4522 31.6042C17.7009 31.8409 18.0227 31.9783 18.36 31.9919H20.1401C20.6122 31.9919 21.065 32.1863 21.3989 32.5325C21.7327 32.8787 21.9202 33.3482 21.9202 33.8378C21.9202 34.3274 21.7327 34.7969 21.3989 35.1431C21.065 35.4892 20.6122 35.6837 20.1401 35.6837H19.9265ZM34.1674 18.6458C30.4114 19.4026 27.2072 19.5503 23.8072 16.7998C19.5883 13.3479 14.4794 14.4555 9.56628 16.2645L8.67622 8.43777C8.65871 8.35881 8.65871 8.27676 8.67622 8.1978C8.70045 8.12024 8.74334 8.05036 8.80083 7.99475C8.84296 7.92662 8.9055 7.87474 8.97884 7.84707C9.04867 7.82655 9.12263 7.82655 9.19246 7.84707H35.0397C35.1064 7.88579 35.1666 7.93569 35.2177 7.99475C35.2711 8.05013 35.3067 8.12212 35.3245 8.1978C35.3516 8.28165 35.3516 8.37238 35.3245 8.45623L34.1674 18.6458Z" fill="currentColor"></path>
  </symbol>
  <symbol fill="none" xmlns="http://www.w3.org/2000/svg" viewBox="0 0 24 24" id="pie-chart">
    <path d="M17.2 13.9999C17.477 13.9999 17.6155 13.9999 17.7278 14.0614C17.8204 14.1122 17.9065 14.2074 17.9478 14.3046C17.9978 14.4225 17.9852 14.5478 17.96 14.7986C17.8296 16.0987 17.3822 17.3514 16.6518 18.4445C15.7727 19.7601 14.5233 20.7854 13.0615 21.391C11.5997 21.9965 9.99113 22.1549 8.43928 21.8462C6.88743 21.5375 5.46197 20.7756 4.34315 19.6568C3.22433 18.5379 2.4624 17.1125 2.15372 15.5606C1.84504 14.0088 2.00347 12.4003 2.60897 10.9384C3.21447 9.47664 4.23985 8.22721 5.55544 7.34816C6.64856 6.61776 7.90125 6.17032 9.20131 6.03988C9.45207 6.01472 9.57745 6.00214 9.69528 6.05213C9.79249 6.09337 9.88776 6.17956 9.9385 6.27216C10 6.38442 10 6.52292 10 6.79991V13.1999C10 13.4799 10 13.62 10.0545 13.7269C10.1024 13.821 10.1789 13.8975 10.273 13.9454C10.38 13.9999 10.52 13.9999 10.8 13.9999H17.2Z" stroke="currentColor" stroke-width="2" stroke-linecap="round" stroke-linejoin="round"></path>
    <path d="M14 2.79993C14 2.52292 14 2.38442 14.0615 2.27217C14.1122 2.17957 14.2075 2.09338 14.3047 2.05213C14.4225 2.00214 14.5479 2.01472 14.7987 2.03987C16.6271 2.22327 18.346 3.03223 19.6569 4.34307C20.9677 5.65391 21.7767 7.37283 21.9601 9.20123C21.9852 9.452 21.9978 9.57738 21.9478 9.69521C21.9066 9.79242 21.8204 9.88768 21.7278 9.93842C21.6155 9.99992 21.477 9.99992 21.2 9.99992L14.8 9.99993C14.52 9.99993 14.38 9.99993 14.273 9.94543C14.1789 9.89749 14.1024 9.821 14.0545 9.72692C14 9.61997 14 9.47995 14 9.19993L14 2.79993Z" stroke="currentColor" stroke-width="2" stroke-linecap="round" stroke-linejoin="round"></path>
  </symbol>
  <symbol fill="none" xmlns="http://www.w3.org/2000/svg" viewBox="0 0 24 24" id="pie-chart-colour">
    <path d="M17.2 13.9999C17.477 13.9999 17.6155 13.9999 17.7278 14.0614C17.8204 14.1122 17.9065 14.2074 17.9478 14.3046C17.9978 14.4225 17.9852 14.5478 17.96 14.7986C17.8296 16.0987 17.3822 17.3514 16.6518 18.4445C15.7727 19.7601 14.5233 20.7854 13.0615 21.391C11.5997 21.9965 9.99113 22.1549 8.43928 21.8462C6.88743 21.5375 5.46197 20.7756 4.34315 19.6568C3.22433 18.5379 2.4624 17.1125 2.15372 15.5606C1.84504 14.0088 2.00347 12.4003 2.60897 10.9384C3.21447 9.47664 4.23985 8.22721 5.55544 7.34816C6.64856 6.61776 7.90125 6.17032 9.20131 6.03988C9.45207 6.01472 9.57745 6.00214 9.69528 6.05213C9.79249 6.09337 9.88776 6.17956 9.9385 6.27216C10 6.38442 10 6.52292 10 6.79991V13.1999C10 13.4799 10 13.62 10.0545 13.7269C10.1024 13.821 10.1789 13.8975 10.273 13.9454C10.38 13.9999 10.52 13.9999 10.8 13.9999H17.2Z" stroke="#323F47" stroke-width="2" stroke-linecap="round" stroke-linejoin="round"></path>
    <path d="M14 2.79993C14 2.52292 14 2.38442 14.0615 2.27217C14.1122 2.17957 14.2075 2.09338 14.3047 2.05213C14.4225 2.00214 14.5479 2.01472 14.7987 2.03987C16.6271 2.22327 18.346 3.03223 19.6569 4.34307C20.9677 5.65391 21.7767 7.37283 21.9601 9.20123C21.9852 9.452 21.9978 9.57738 21.9478 9.69521C21.9066 9.79242 21.8204 9.88768 21.7278 9.93842C21.6155 9.99992 21.477 9.99992 21.2 9.99992L14.8 9.99993C14.52 9.99993 14.38 9.99993 14.273 9.94543C14.1789 9.89749 14.1024 9.821 14.0545 9.72692C14 9.61997 14 9.47995 14 9.19993L14 2.79993Z" stroke="#9BE1A0" stroke-width="2" stroke-linecap="round" stroke-linejoin="round"></path>
  </symbol>
  <symbol fill="none" xmlns="http://www.w3.org/2000/svg" viewBox="0 0 20 20" id="eye-off">
    <g clip-path="url(#clip0_16_2189)">
      <path d="M14.9497 14.9499C13.5252 16.0358 11.7906 16.6373 9.99968 16.6666C4.16634 16.6666 0.833008 9.99994 0.833008 9.99994C1.86958 8.06819 3.30729 6.38045 5.04967 5.04994M8.24968 3.53327C8.82329 3.39901 9.41056 3.33189 9.99968 3.33327C15.833 3.33327 19.1663 9.99994 19.1663 9.99994C18.6605 10.9463 18.0572 11.8372 17.3663 12.6583M11.7663 11.7666C11.5375 12.0122 11.2615 12.2092 10.9548 12.3459C10.6481 12.4825 10.3171 12.556 9.98142 12.5619C9.64574 12.5678 9.31231 12.5061 9.00102 12.3803C8.68972 12.2546 8.40694 12.0675 8.16955 11.8301C7.93215 11.5927 7.745 11.3099 7.61927 10.9986C7.49353 10.6873 7.43178 10.3539 7.4377 10.0182C7.44363 9.68252 7.5171 9.35148 7.65374 9.04481C7.79038 8.73815 7.98739 8.46215 8.23301 8.23327" stroke="currentColor" stroke-width="1.8" stroke-linecap="round" stroke-linejoin="round"></path>
      <path d="M0.833008 0.833496L19.1663 19.1668" stroke="currentColor" stroke-width="1.8" stroke-linecap="round" stroke-linejoin="round"></path>
    </g>
    <defs>
      <clipPath id="clip0_16_2189">
        <rect width="20" height="20" fill="white"></rect>
      </clipPath>
    </defs>
  </symbol>
  <symbol xmlns="http://www.w3.org/2000/svg" viewBox="0 0 8 8" id="Ellipse">
    <circle cx="4" cy="4" r="4" fill="#currentColor"></circle>
  </symbol>
  <symbol xmlns="http://www.w3.org/2000/svg" viewBox="0 0 152 21" id="AquaTrack">
    <path d="M12.0493 15.024H5.76128L4.75328 18H0.45728L6.55328 1.152H11.3053L17.4013 18H13.0573L12.0493 15.024ZM10.9933 11.856L8.90528 5.688L6.84128 11.856H10.9933ZM31.0166 20.88L28.8566 17.976C28.2166 18.104 27.5926 18.168 26.9846 18.168C25.4006 18.168 23.9446 17.8 22.6166 17.064C21.3046 16.328 20.2566 15.304 19.4726 13.992C18.7046 12.664 18.3206 11.176 18.3206 9.528C18.3206 7.88 18.7046 6.4 19.4726 5.088C20.2566 3.776 21.3046 2.752 22.6166 2.016C23.9446 1.28 25.4006 0.912 26.9846 0.912C28.5686 0.912 30.0166 1.28 31.3286 2.016C32.6566 2.752 33.6966 3.776 34.4486 5.088C35.2166 6.4 35.6006 7.88 35.6006 9.528C35.6006 10.968 35.3046 12.288 34.7126 13.488C34.1366 14.672 33.3286 15.656 32.2886 16.44L35.9846 20.88H31.0166ZM22.5206 9.528C22.5206 11.016 22.9206 12.208 23.7206 13.104C24.5366 13.984 25.6246 14.424 26.9846 14.424C28.3286 14.424 29.4006 13.976 30.2006 13.08C31.0166 12.184 31.4246 11 31.4246 9.528C31.4246 8.04 31.0166 6.856 30.2006 5.976C29.4006 5.08 28.3286 4.632 26.9846 4.632C25.6246 4.632 24.5366 5.072 23.7206 5.952C22.9206 6.832 22.5206 8.024 22.5206 9.528ZM41.7227 1.152V11.232C41.7227 12.24 41.9707 13.016 42.4667 13.56C42.9627 14.104 43.6907 14.376 44.6507 14.376C45.6107 14.376 46.3467 14.104 46.8587 13.56C47.3707 13.016 47.6267 12.24 47.6267 11.232V1.152H51.7307V11.208C51.7307 12.712 51.4107 13.984 50.7707 15.024C50.1307 16.064 49.2667 16.848 48.1787 17.376C47.1067 17.904 45.9067 18.168 44.5787 18.168C43.2507 18.168 42.0587 17.912 41.0027 17.4C39.9627 16.872 39.1387 16.088 38.5307 15.048C37.9227 13.992 37.6187 12.712 37.6187 11.208V1.152H41.7227ZM64.8605 15.024H58.5725L57.5645 18H53.2685L59.3645 1.152H64.1165L70.2125 18H65.8685L64.8605 15.024ZM63.8045 11.856L61.7165 5.688L59.6525 11.856H63.8045ZM83.9478 1.152V4.44H79.4838V18H75.3798V4.44H70.9158V1.152H83.9478ZM94.3595 18L90.8555 11.64H89.8715V18H85.7675V1.152H92.6555C93.9835 1.152 95.1115 1.384 96.0395 1.848C96.9835 2.312 97.6875 2.952 98.1515 3.768C98.6155 4.568 98.8475 5.464 98.8475 6.456C98.8475 7.576 98.5275 8.576 97.8875 9.456C97.2635 10.336 96.3355 10.96 95.1035 11.328L98.9915 18H94.3595ZM89.8715 8.736H92.4155C93.1675 8.736 93.7275 8.552 94.0955 8.184C94.4795 7.816 94.6715 7.296 94.6715 6.624C94.6715 5.984 94.4795 5.48 94.0955 5.112C93.7275 4.744 93.1675 4.56 92.4155 4.56H89.8715V8.736ZM111.672 15.024H105.384L104.376 18H100.08L106.176 1.152H110.928L117.024 18H112.68L111.672 15.024ZM110.616 11.856L108.528 5.688L106.464 11.856H110.616ZM117.943 9.552C117.943 7.888 118.303 6.408 119.023 5.112C119.743 3.8 120.743 2.784 122.023 2.064C123.319 1.328 124.783 0.959999 126.415 0.959999C128.415 0.959999 130.127 1.488 131.551 2.544C132.975 3.6 133.927 5.04 134.407 6.864H129.895C129.559 6.16 129.079 5.624 128.455 5.256C127.847 4.888 127.151 4.704 126.367 4.704C125.103 4.704 124.079 5.144 123.295 6.024C122.511 6.904 122.119 8.08 122.119 9.552C122.119 11.024 122.511 12.2 123.295 13.08C124.079 13.96 125.103 14.4 126.367 14.4C127.151 14.4 127.847 14.216 128.455 13.848C129.079 13.48 129.559 12.944 129.895 12.24H134.407C133.927 14.064 132.975 15.504 131.551 16.56C130.127 17.6 128.415 18.12 126.415 18.12C124.783 18.12 123.319 17.76 122.023 17.04C120.743 16.304 119.743 15.288 119.023 13.992C118.303 12.696 117.943 11.216 117.943 9.552ZM146.448 18L140.784 10.56V18H136.68V1.152H140.784V8.544L146.4 1.152H151.224L144.696 9.408L151.464 18H146.448Z" fill="currentColor"></path>
  </symbol>
  <symbol xmlns="http://www.w3.org/2000/svg" viewBox="0 0 4 18" id="icon-alert">
  <path d="M0.579343 10.4315C0.647687 11.1434 0.763562 11.6724 0.923031 12.0214C1.08447 12.3693 1.37106 12.5429 1.78478 12.5429C1.86212 12.5429 1.93131 12.5308 1.99994 12.5167C2.07025 12.5308 2.13916 12.5429 2.21706 12.5429C2.62966 12.5429 2.91709 12.3693 3.07769 12.0214C3.238 11.6724 3.35191 11.1434 3.42166 10.4315L3.78897 4.93532C3.85731 3.86404 3.89219 3.09538 3.89219 2.62879C3.89219 1.99372 3.72653 1.49816 3.39409 1.14238C3.06053 0.7866 2.62234 0.609131 2.07953 0.609131C2.05056 0.609131 2.02891 0.6156 2.0005 0.616725C1.9735 0.6156 1.95128 0.609131 1.92316 0.609131C1.37922 0.609131 0.941875 0.7866 0.608875 1.14238C0.276156 1.49872 0.109375 1.99457 0.109375 2.62907C0.109375 3.09566 0.143406 3.86432 0.212875 4.9356L0.579343 10.4315ZM2.01428 14.5518C1.48722 14.5518 1.03947 14.718 0.667656 15.0505C0.296125 15.3832 0.109937 15.7871 0.109937 16.2613C0.109937 16.7965 0.298375 17.2178 0.672437 17.5238C1.04819 17.8298 1.48637 17.9828 1.98728 17.9828C2.49719 17.9828 2.94184 17.832 3.32209 17.5297C3.70178 17.2282 3.89162 16.8046 3.89162 16.2618C3.89162 15.7876 3.70994 15.3838 3.34656 15.051C2.98319 14.718 2.53909 14.5518 2.01344 14.5518" />
</symbol>
</svg>