<svg width="0" height="0" class="hidden">
  <symbol fill="none" xmlns="http://www.w3.org/2000/svg" viewBox="0 0 43 43" id="minus_plus">
    <rect x="0.75" y="0.75" width="41.5" height="41.5" rx="20.75" stroke="#323F47" stroke-width="1.5"></rect>
    <path d="M13.8214 21.5H29.1785" stroke="#323F47" stroke-width="1.8" stroke-linecap="round" stroke-linejoin="round"></path>
  </symbol>
  <symbol fill="none" xmlns="http://www.w3.org/2000/svg" viewBox="0 0 43 43" id="plus_minuc">
    <rect x="0.75" y="0.75" width="41.5" height="41.5" rx="20.75" stroke="#323F47" stroke-width="1.5"></rect>
    <path d="M21.5 13.8215V29.1787" stroke="#323F47" stroke-width="1.8" stroke-linecap="round" stroke-linejoin="round"></path>
    <path d="M13.8214 21.5H29.1785" stroke="#323F47" stroke-width="1.8" stroke-linecap="round" stroke-linejoin="round"></path>
  </symbol>
  <symbol fill="none" xmlns="http://www.w3.org/2000/svg" viewBox="0 0 20 20" id="chevron-down">
    <path d="M5 7.5L10 12.5L15 7.5" stroke="white" stroke-width="2" stroke-linecap="round" stroke-linejoin="round"></path>
  </symbol>
  <symbol fill="none" xmlns="http://www.w3.org/2000/svg" viewBox="0 0 21 20" id="upload">
    <path d="M18 12.5V15.8333C18 16.2754 17.8244 16.6993 17.5118 17.0118C17.1993 17.3244 16.7754 17.5 16.3333 17.5H4.66667C4.22464 17.5 3.80072 17.3244 3.48816 17.0118C3.17559 16.6993 3 16.2754 3 15.8333V12.5" stroke="#2F2F2F" stroke-width="1.8" stroke-linecap="round" stroke-linejoin="round"></path>
    <path d="M14.6668 6.66667L10.5002 2.5L6.3335 6.66667" stroke="#2F2F2F" stroke-width="1.8" stroke-linecap="round" stroke-linejoin="round"></path>
    <path d="M10.5 2.5V12.5" stroke="#2F2F2F" stroke-width="1.8" stroke-linecap="round" stroke-linejoin="round"></path>
  </symbol>
  <symbol fill="none" xmlns="http://www.w3.org/2000/svg" viewBox="0 0 28 28" id="x">
    <path d="M21 7L7 21" stroke="#2F2F2F" stroke-width="3" stroke-linecap="round" stroke-linejoin="round"></path>
    <path d="M7 7L21 21" stroke="#2F2F2F" stroke-width="3" stroke-linecap="round" stroke-linejoin="round"></path>
  </symbol>
  <symbol fill="none" xmlns="http://www.w3.org/2000/svg" viewBox="0 0 24 24" id="pie-chart">
    <g opacity="0.4">
      <path d="M17.2 14C17.477 14 17.6155 14 17.7278 14.0615C17.8204 14.1123 17.9065 14.2076 17.9478 14.3048C17.9978 14.4226 17.9852 14.548 17.96 14.7987C17.8296 16.0988 17.3822 17.3515 16.6518 18.4446C15.7727 19.7602 14.5233 20.7856 13.0615 21.3911C11.5997 21.9966 9.99113 22.155 8.43928 21.8463C6.88743 21.5376 5.46197 20.7757 4.34315 19.6569C3.22433 18.5381 2.4624 17.1126 2.15372 15.5608C1.84504 14.0089 2.00347 12.4004 2.60897 10.9386C3.21447 9.47676 4.23985 8.22733 5.55544 7.34828C6.64856 6.61788 7.90125 6.17044 9.20131 6.04C9.45207 6.01484 9.57745 6.00226 9.69528 6.05225C9.79249 6.09349 9.88776 6.17968 9.9385 6.27229C10 6.38454 10 6.52304 10 6.80004V13.2C10 13.4801 10 13.6201 10.0545 13.727C10.1024 13.8211 10.1789 13.8976 10.273 13.9455C10.38 14 10.52 14 10.8 14H17.2Z" stroke="#323F47" stroke-width="2" stroke-linecap="round" stroke-linejoin="round"></path>
      <path d="M14 2.80005C14 2.52304 14 2.38454 14.0615 2.27229C14.1122 2.17969 14.2075 2.0935 14.3047 2.05226C14.4225 2.00226 14.5479 2.01484 14.7987 2.03999C16.6271 2.22339 18.346 3.03235 19.6569 4.34319C20.9677 5.65404 21.7767 7.37295 21.9601 9.20135C21.9852 9.45212 21.9978 9.5775 21.9478 9.69533C21.9066 9.79254 21.8204 9.88781 21.7278 9.93854C21.6155 10 21.477 10 21.2 10L14.8 10C14.52 10 14.38 10 14.273 9.94555C14.1789 9.89761 14.1024 9.82112 14.0545 9.72704C14 9.62009 14 9.48007 14 9.20005L14 2.80005Z" stroke="#9BE1A0" stroke-width="2" stroke-linecap="round" stroke-linejoin="round"></path>
    </g>
  </symbol>
  <symbol fill="none" xmlns="http://www.w3.org/2000/svg" viewBox="0 0 18 18" id="chevron-right">
    <path d="M6.75 13.5L11.25 9L6.75 4.5" stroke="#323F47" stroke-width="2" stroke-linecap="round" stroke-linejoin="round"></path>
  </symbol>
  <symbol fill="none" xmlns="http://www.w3.org/2000/svg" viewBox="0 0 18 18" id="chevron-left">
    <path d="M11.25 13.5L6.75 9L11.25 4.5" stroke="#323F47" stroke-width="2" stroke-linecap="round" stroke-linejoin="round"></path>
  </symbol>
  <symbol fill="none" xmlns="http://www.w3.org/2000/svg" viewBox="0 0 44 45" id="mage_water-glass-fill">
    <path d="M37.9056 7.34867C37.7726 6.89785 37.5482 6.48177 37.2473 6.12836C36.9464 5.77495 36.576 5.4924 36.1611 5.29969C35.749 5.09981 35.2988 4.99886 34.8438 5.00434H9.22806C8.77332 4.97782 8.31966 5.07318 7.91078 5.28123C7.48682 5.47608 7.10986 5.7661 6.80711 6.13036C6.50635 6.48316 6.28179 6.89854 6.14847 7.34867C6.01051 7.7953 5.96799 8.26773 6.02386 8.73312L8.94324 34.5762C9.13905 36.3446 9.9579 37.9727 11.2396 39.1541C12.4924 40.334 14.122 40.9916 15.8145 41H28.2752C29.9732 40.9926 31.6087 40.3353 32.8679 39.1541C34.1328 37.9613 34.9416 36.3363 35.1465 34.5762L36.7308 20.0487V19.8272L37.959 8.75158C38.0279 8.28471 38.0098 7.80846 37.9056 7.34867ZM19.9265 35.6837H18.1464C16.9933 35.6172 15.8956 35.1489 15.0312 34.3546C14.1699 33.5498 13.6038 32.4605 13.4291 31.2719L13.0019 28.0969C12.9471 27.6129 13.0771 27.1259 13.3643 26.7402C13.6514 26.3544 14.0728 26.1006 14.5382 26.033C15.0036 25.9654 15.4761 26.0895 15.8543 26.3787C16.2326 26.6678 16.4867 27.0991 16.5621 27.5801L16.9893 30.7182C17.0372 31.0612 17.2013 31.3753 17.4522 31.6042C17.7009 31.8409 18.0227 31.9783 18.36 31.9919H20.1401C20.6122 31.9919 21.065 32.1863 21.3989 32.5325C21.7327 32.8787 21.9202 33.3482 21.9202 33.8378C21.9202 34.3274 21.7327 34.7969 21.3989 35.1431C21.065 35.4892 20.6122 35.6837 20.1401 35.6837H19.9265ZM34.1674 18.6458C30.4114 19.4026 27.2072 19.5503 23.8072 16.7998C19.5883 13.3479 14.4794 14.4555 9.56628 16.2645L8.67622 8.43777C8.65871 8.35881 8.65871 8.27676 8.67622 8.1978C8.70045 8.12024 8.74334 8.05036 8.80083 7.99475C8.84296 7.92662 8.9055 7.87474 8.97884 7.84707C9.04867 7.82655 9.12263 7.82655 9.19246 7.84707H35.0397C35.1064 7.88579 35.1666 7.93569 35.2177 7.99475C35.2711 8.05013 35.3067 8.12212 35.3245 8.1978C35.3516 8.28165 35.3516 8.37238 35.3245 8.45623L34.1674 18.6458Z" fill="#9BE1A0"></path>
  </symbol>
  <symbol fill="none" xmlns="http://www.w3.org/2000/svg" viewBox="0 0 16 16" id="trash-04">
    <path d="M6 2H10" stroke="#323F47" stroke-width="1.5" stroke-linecap="round" stroke-linejoin="round"></path>
    <path d="M2 4H14M12.6667 4L12.1991 11.0129C12.129 12.065 12.0939 12.5911 11.8667 12.99C11.6666 13.3412 11.3648 13.6235 11.0011 13.7998C10.588 14 10.0607 14 9.00623 14H6.99377C5.93927 14 5.41202 14 4.99889 13.7998C4.63517 13.6235 4.33339 13.3412 4.13332 12.99C3.90607 12.5911 3.871 12.065 3.80086 11.0129L3.33333 4" stroke="#323F47" stroke-width="1.8" stroke-linecap="round" stroke-linejoin="round"></path>
  </symbol>
  <symbol fill="none" xmlns="http://www.w3.org/2000/svg" viewBox="0 0 16 16" id="edit-2">
    <g clip-path="url(#clip0_19_2368)">
      <path d="M11.3335 1.99998C11.5086 1.82488 11.7165 1.68599 11.9452 1.59123C12.174 1.49647 12.4192 1.44769 12.6668 1.44769C12.9145 1.44769 13.1596 1.49647 13.3884 1.59123C13.6172 1.68599 13.8251 1.82488 14.0002 1.99998C14.1753 2.17507 14.3142 2.38294 14.4089 2.61172C14.5037 2.84049 14.5524 3.08569 14.5524 3.33331C14.5524 3.58093 14.5037 3.82613 14.4089 4.05491C14.3142 4.28368 14.1753 4.49155 14.0002 4.66664L5.00016 13.6666L1.3335 14.6666L2.3335 11L11.3335 1.99998Z" stroke="#323F47" stroke-width="1.8" stroke-linecap="round" stroke-linejoin="round"></path>
    </g>
    <defs>
      <clipPath id="clip0_19_2368">
        <rect width="16" height="16" fill="white"></rect>
      </clipPath>
    </defs>
  </symbol>
  <symbol fill="none" xmlns="http://www.w3.org/2000/svg" viewBox="0 0 24 24" id="plus">
    <path d="M12 5V19" stroke="white" stroke-width="2" stroke-linecap="round" stroke-linejoin="round"></path>
    <path d="M5 12H19" stroke="white" stroke-width="2" stroke-linecap="round" stroke-linejoin="round"></path>
  </symbol>
  <symbol fill="none" xmlns="http://www.w3.org/2000/svg" viewBox="0 0 20 20" id="eye-off">
    <g clip-path="url(#clip0_16_2189)">
      <path d="M14.9497 14.9499C13.5252 16.0358 11.7906 16.6373 9.99968 16.6666C4.16634 16.6666 0.833008 9.99994 0.833008 9.99994C1.86958 8.06819 3.30729 6.38045 5.04967 5.04994M8.24968 3.53327C8.82329 3.39901 9.41056 3.33189 9.99968 3.33327C15.833 3.33327 19.1663 9.99994 19.1663 9.99994C18.6605 10.9463 18.0572 11.8372 17.3663 12.6583M11.7663 11.7666C11.5375 12.0122 11.2615 12.2092 10.9548 12.3459C10.6481 12.4825 10.3171 12.556 9.98142 12.5619C9.64574 12.5678 9.31231 12.5061 9.00102 12.3803C8.68972 12.2546 8.40694 12.0675 8.16955 11.8301C7.93215 11.5927 7.745 11.3099 7.61927 10.9986C7.49353 10.6873 7.43178 10.3539 7.4377 10.0182C7.44363 9.68252 7.5171 9.35148 7.65374 9.04481C7.79038 8.73815 7.98739 8.46215 8.23301 8.23327" stroke="#2F2F2F" stroke-width="1.8" stroke-linecap="round" stroke-linejoin="round"></path>
      <path d="M0.833008 0.833496L19.1663 19.1668" stroke="#2F2F2F" stroke-width="1.8" stroke-linecap="round" stroke-linejoin="round"></path>
    </g>
    <defs>
      <clipPath id="clip0_16_2189">
        <rect width="20" height="20" fill="white"></rect>
      </clipPath>
    </defs>
  </symbol>
  <symbol fill="none" xmlns="http://www.w3.org/2000/svg" viewBox="0 0 155 24" id="logo">
    <path d="M13.0493 17.024H6.76128L5.75328 20H1.45728L7.55328 3.152H12.3053L18.4013 20H14.0573L13.0493 17.024ZM11.9933 13.856L9.90528 7.688L7.84128 13.856H11.9933ZM32.0166 22.88L29.8566 19.976C29.2166 20.104 28.5926 20.168 27.9846 20.168C26.4006 20.168 24.9446 19.8 23.6166 19.064C22.3046 18.328 21.2566 17.304 20.4726 15.992C19.7046 14.664 19.3206 13.176 19.3206 11.528C19.3206 9.88 19.7046 8.4 20.4726 7.088C21.2566 5.776 22.3046 4.752 23.6166 4.016C24.9446 3.28 26.4006 2.912 27.9846 2.912C29.5686 2.912 31.0166 3.28 32.3286 4.016C33.6566 4.752 34.6966 5.776 35.4486 7.088C36.2166 8.4 36.6006 9.88 36.6006 11.528C36.6006 12.968 36.3046 14.288 35.7126 15.488C35.1366 16.672 34.3286 17.656 33.2886 18.44L36.9846 22.88H32.0166ZM23.5206 11.528C23.5206 13.016 23.9206 14.208 24.7206 15.104C25.5366 15.984 26.6246 16.424 27.9846 16.424C29.3286 16.424 30.4006 15.976 31.2006 15.08C32.0166 14.184 32.4246 13 32.4246 11.528C32.4246 10.04 32.0166 8.856 31.2006 7.976C30.4006 7.08 29.3286 6.632 27.9846 6.632C26.6246 6.632 25.5366 7.072 24.7206 7.952C23.9206 8.832 23.5206 10.024 23.5206 11.528ZM42.7227 3.152V13.232C42.7227 14.24 42.9707 15.016 43.4667 15.56C43.9627 16.104 44.6907 16.376 45.6507 16.376C46.6107 16.376 47.3467 16.104 47.8587 15.56C48.3707 15.016 48.6267 14.24 48.6267 13.232V3.152H52.7307V13.208C52.7307 14.712 52.4107 15.984 51.7707 17.024C51.1307 18.064 50.2667 18.848 49.1787 19.376C48.1067 19.904 46.9067 20.168 45.5787 20.168C44.2507 20.168 43.0587 19.912 42.0027 19.4C40.9627 18.872 40.1387 18.088 39.5307 17.048C38.9227 15.992 38.6187 14.712 38.6187 13.208V3.152H42.7227ZM65.8605 17.024H59.5725L58.5645 20H54.2685L60.3645 3.152H65.1165L71.2125 20H66.8685L65.8605 17.024ZM64.8045 13.856L62.7165 7.688L60.6525 13.856H64.8045ZM84.9478 3.152V6.44H80.4838V20H76.3798V6.44H71.9158V3.152H84.9478ZM95.3595 20L91.8555 13.64H90.8715V20H86.7675V3.152H93.6555C94.9835 3.152 96.1115 3.384 97.0395 3.848C97.9835 4.312 98.6875 4.952 99.1515 5.768C99.6155 6.568 99.8475 7.464 99.8475 8.456C99.8475 9.576 99.5275 10.576 98.8875 11.456C98.2635 12.336 97.3355 12.96 96.1035 13.328L99.9915 20H95.3595ZM90.8715 10.736H93.4155C94.1675 10.736 94.7275 10.552 95.0955 10.184C95.4795 9.816 95.6715 9.296 95.6715 8.624C95.6715 7.984 95.4795 7.48 95.0955 7.112C94.7275 6.744 94.1675 6.56 93.4155 6.56H90.8715V10.736ZM112.672 17.024H106.384L105.376 20H101.08L107.176 3.152H111.928L118.024 20H113.68L112.672 17.024ZM111.616 13.856L109.528 7.688L107.464 13.856H111.616ZM118.943 11.552C118.943 9.888 119.303 8.408 120.023 7.112C120.743 5.8 121.743 4.784 123.023 4.064C124.319 3.328 125.783 2.96 127.415 2.96C129.415 2.96 131.127 3.488 132.551 4.544C133.975 5.6 134.927 7.04 135.407 8.864H130.895C130.559 8.16 130.079 7.624 129.455 7.256C128.847 6.888 128.151 6.704 127.367 6.704C126.103 6.704 125.079 7.144 124.295 8.024C123.511 8.904 123.119 10.08 123.119 11.552C123.119 13.024 123.511 14.2 124.295 15.08C125.079 15.96 126.103 16.4 127.367 16.4C128.151 16.4 128.847 16.216 129.455 15.848C130.079 15.48 130.559 14.944 130.895 14.24H135.407C134.927 16.064 133.975 17.504 132.551 18.56C131.127 19.6 129.415 20.12 127.415 20.12C125.783 20.12 124.319 19.76 123.023 19.04C121.743 18.304 120.743 17.288 120.023 15.992C119.303 14.696 118.943 13.216 118.943 11.552ZM147.448 20L141.784 12.56V20H137.68V3.152H141.784V10.544L147.4 3.152H152.224L145.696 11.408L152.464 20H147.448Z" fill="#323F47"></path>
  </symbol>
  <symbol fill="none" xmlns="http://www.w3.org/2000/svg" viewBox="0 0 16 17" id="log-out">
    <path d="M6 14.5H3.33333C2.97971 14.5 2.64057 14.3595 2.39052 14.1095C2.14048 13.8594 2 13.5203 2 13.1667V3.83333C2 3.47971 2.14048 3.14057 2.39052 2.89052C2.64057 2.64048 2.97971 2.5 3.33333 2.5H6" stroke="#323F47" stroke-opacity="0.4" stroke-width="1.5" stroke-linecap="round" stroke-linejoin="round"></path>
    <path d="M10.6665 11.8333L13.9998 8.49996L10.6665 5.16663" stroke="#323F47" stroke-opacity="0.4" stroke-width="1.5" stroke-linecap="round" stroke-linejoin="round"></path>
    <path d="M14 8.5H6" stroke="#323F47" stroke-opacity="0.4" stroke-width="1.5" stroke-linecap="round" stroke-linejoin="round"></path>
  </symbol>
  <symbol fill="none" xmlns="http://www.w3.org/2000/svg" viewBox="0 0 16 17" id="settings">
    <g clip-path="url(#clip0_25_4287)">
      <path d="M8 10.5C9.10457 10.5 10 9.60457 10 8.5C10 7.39543 9.10457 6.5 8 6.5C6.89543 6.5 6 7.39543 6 8.5C6 9.60457 6.89543 10.5 8 10.5Z" stroke="#323F47" stroke-width="1.5" stroke-linecap="round" stroke-linejoin="round"></path>
      <path d="M12.9332 10.5C12.8444 10.701 12.818 10.9241 12.8572 11.1404C12.8964 11.3566 12.9995 11.5562 13.1532 11.7133L13.1932 11.7533C13.3171 11.8771 13.4155 12.0242 13.4826 12.186C13.5497 12.3479 13.5842 12.5214 13.5842 12.6966C13.5842 12.8718 13.5497 13.0454 13.4826 13.2072C13.4155 13.3691 13.3171 13.5161 13.1932 13.64C13.0693 13.7639 12.9223 13.8623 12.7604 13.9294C12.5986 13.9965 12.4251 14.031 12.2498 14.031C12.0746 14.031 11.9011 13.9965 11.7393 13.9294C11.5774 13.8623 11.4303 13.7639 11.3065 13.64L11.2665 13.6C11.1094 13.4463 10.9098 13.3432 10.6936 13.304C10.4773 13.2647 10.2542 13.2912 10.0532 13.38C9.85599 13.4645 9.68783 13.6048 9.56938 13.7837C9.45093 13.9625 9.38736 14.1721 9.3865 14.3866V14.5C9.3865 14.8536 9.24603 15.1927 8.99598 15.4428C8.74593 15.6928 8.40679 15.8333 8.05317 15.8333C7.69955 15.8333 7.36041 15.6928 7.11036 15.4428C6.86031 15.1927 6.71984 14.8536 6.71984 14.5V14.44C6.71468 14.2193 6.64325 14.0053 6.51484 13.8258C6.38644 13.6462 6.20699 13.5095 5.99984 13.4333C5.79876 13.3446 5.57571 13.3181 5.35945 13.3573C5.14318 13.3965 4.94362 13.4996 4.7865 13.6533L4.7465 13.6933C4.62267 13.8173 4.47562 13.9156 4.31376 13.9827C4.15189 14.0498 3.97839 14.0843 3.80317 14.0843C3.62795 14.0843 3.45445 14.0498 3.29258 13.9827C3.13072 13.9156 2.98367 13.8173 2.85984 13.6933C2.73587 13.5695 2.63752 13.4224 2.57042 13.2605C2.50333 13.0987 2.46879 12.9252 2.46879 12.75C2.46879 12.5747 2.50333 12.4012 2.57042 12.2394C2.63752 12.0775 2.73587 11.9305 2.85984 11.8066L2.89984 11.7666C3.05353 11.6095 3.15663 11.4099 3.19584 11.1937C3.23505 10.9774 3.20858 10.7544 3.11984 10.5533C3.03533 10.3561 2.89501 10.1879 2.71615 10.0695C2.53729 9.95105 2.3277 9.88748 2.11317 9.88663H1.99984C1.64622 9.88663 1.30708 9.74615 1.05703 9.4961C0.80698 9.24605 0.666504 8.90692 0.666504 8.55329C0.666504 8.19967 0.80698 7.86053 1.05703 7.61048C1.30708 7.36044 1.64622 7.21996 1.99984 7.21996H2.05984C2.2805 7.2148 2.49451 7.14337 2.67404 7.01497C2.85357 6.88656 2.99031 6.70712 3.0665 6.49996C3.15525 6.29888 3.18172 6.07583 3.14251 5.85957C3.10329 5.6433 3.0002 5.44375 2.8465 5.28663L2.8065 5.24663C2.68254 5.1228 2.58419 4.97574 2.51709 4.81388C2.44999 4.65202 2.41546 4.47851 2.41546 4.30329C2.41546 4.12807 2.44999 3.95457 2.51709 3.79271C2.58419 3.63084 2.68254 3.48379 2.8065 3.35996C2.93033 3.23599 3.07739 3.13765 3.23925 3.07055C3.40111 3.00345 3.57462 2.96891 3.74984 2.96891C3.92506 2.96891 4.09856 3.00345 4.26042 3.07055C4.42229 3.13765 4.56934 3.23599 4.69317 3.35996L4.73317 3.39996C4.89029 3.55365 5.08985 3.65675 5.30611 3.69596C5.52238 3.73518 5.74543 3.7087 5.9465 3.61996H5.99984C6.19702 3.53545 6.36518 3.39513 6.48363 3.21627C6.60208 3.03741 6.66565 2.82782 6.6665 2.61329V2.49996C6.6665 2.14634 6.80698 1.8072 7.05703 1.55715C7.30708 1.3071 7.64622 1.16663 7.99984 1.16663C8.35346 1.16663 8.6926 1.3071 8.94265 1.55715C9.1927 1.8072 9.33317 2.14634 9.33317 2.49996V2.55996C9.33403 2.77448 9.39759 2.98408 9.51604 3.16294C9.63449 3.3418 9.80266 3.48212 9.99984 3.56663C10.2009 3.65537 10.424 3.68184 10.6402 3.64263C10.8565 3.60342 11.0561 3.50032 11.2132 3.34663L11.2532 3.30663C11.377 3.18266 11.5241 3.08431 11.6859 3.01721C11.8478 2.95011 12.0213 2.91558 12.1965 2.91558C12.3717 2.91558 12.5452 2.95011 12.7071 3.01721C12.869 3.08431 13.016 3.18266 13.1398 3.30663C13.2638 3.43046 13.3622 3.57751 13.4293 3.73937C13.4964 3.90124 13.5309 4.07474 13.5309 4.24996C13.5309 4.42518 13.4964 4.59868 13.4293 4.76055C13.3622 4.92241 13.2638 5.06946 13.1398 5.19329L13.0998 5.23329C12.9461 5.39041 12.843 5.58997 12.8038 5.80623C12.7646 6.0225 12.7911 6.24555 12.8798 6.44663V6.49996C12.9643 6.69714 13.1047 6.8653 13.2835 6.98376C13.4624 7.10221 13.672 7.16577 13.8865 7.16663H13.9998C14.3535 7.16663 14.6926 7.3071 14.9426 7.55715C15.1927 7.8072 15.3332 8.14634 15.3332 8.49996C15.3332 8.85358 15.1927 9.19272 14.9426 9.44277C14.6926 9.69282 14.3535 9.83329 13.9998 9.83329H13.9398C13.7253 9.83415 13.5157 9.89771 13.3369 10.0162C13.158 10.1346 13.0177 10.3028 12.9332 10.5Z" stroke="#323F47" stroke-width="1.5" stroke-linecap="round" stroke-linejoin="round"></path>
    </g>
    <defs>
      <clipPath id="clip0_25_4287">
        <rect width="16" height="16" fill="white" transform="translate(0 0.5)"></rect>
      </clipPath>
    </defs>
  </symbol>
  <symbol fill="none" xmlns="http://www.w3.org/2000/svg" viewBox="0 0 8 8" id="Ellipse 13">
    <circle cx="4" cy="4" r="4" fill="#9BE1A0"></circle>
  </symbol>
  <symbol id="icon-pie-chart-02" viewBox="0 0 32 32">
<path stroke-linejoin="round" stroke-linecap="round" stroke-miterlimit="4" stroke-width="2.6667" d="M22.933 18.667c0.369 0 0.554 0 0.704 0.082 0.123 0.068 0.238 0.195 0.293 0.324 0.067 0.157 0.050 0.324 0.016 0.659-0.174 1.733-0.77 3.404-1.744 4.861-1.172 1.754-2.838 3.121-4.787 3.929s-4.094 1.019-6.163 0.607c-2.069-0.412-3.97-1.427-5.462-2.919s-2.508-3.392-2.919-5.461c-0.412-2.069-0.2-4.214 0.607-6.163s2.175-3.615 3.929-4.787c1.457-0.974 3.128-1.57 4.861-1.744 0.334-0.034 0.502-0.050 0.659 0.016 0.13 0.055 0.257 0.17 0.324 0.293 0.082 0.15 0.082 0.334 0.082 0.704v8.533c0 0.373 0 0.56 0.073 0.703 0.064 0.125 0.166 0.227 0.291 0.291 0.143 0.073 0.329 0.073 0.703 0.073h8.533z"></path>
<path stroke-linejoin="round" stroke-linecap="round" stroke-miterlimit="4" stroke-width="2.6667" d="M18.667 3.733c0-0.369 0-0.554 0.082-0.704 0.068-0.123 0.195-0.238 0.324-0.293 0.157-0.067 0.324-0.050 0.659-0.016 2.438 0.245 4.73 1.323 6.478 3.071s2.826 4.040 3.071 6.478c0.033 0.334 0.050 0.502-0.016 0.659-0.055 0.13-0.17 0.257-0.293 0.324-0.15 0.082-0.334 0.082-0.704 0.082h-8.533c-0.373 0-0.56 0-0.703-0.073-0.125-0.064-0.227-0.166-0.291-0.291-0.073-0.143-0.073-0.329-0.073-0.703v-8.533z"></path>
</symbol>                                          <symbol id="icon-mage_water-glass-fill" viewBox="0 0 31 32">
<path d="M26.955 5.226c-0.095-0.321-0.254-0.616-0.468-0.868s-0.477-0.452-0.772-0.589c-0.293-0.142-0.613-0.214-0.937-0.21h-18.216c-0.323-0.019-0.646 0.049-0.937 0.197-0.301 0.139-0.57 0.345-0.785 0.604-0.214 0.251-0.374 0.546-0.468 0.866-0.098 0.318-0.128 0.654-0.089 0.984l2.076 18.377c0.139 1.258 0.722 2.415 1.633 3.255 0.891 0.839 2.050 1.307 3.253 1.313h8.861c1.207-0.005 2.37-0.473 3.266-1.313 0.899-0.848 1.475-2.004 1.62-3.255l1.127-10.331v-0.158l0.873-7.876c0.049-0.332 0.036-0.671-0.038-0.998zM14.17 25.375h-1.266c-0.82-0.047-1.601-0.38-2.215-0.945-0.612-0.572-1.015-1.347-1.139-2.192l-0.304-2.258c-0.039-0.344 0.053-0.691 0.258-0.965s0.504-0.455 0.835-0.503 0.667 0.040 0.936 0.246c0.269 0.206 0.45 0.512 0.503 0.854l0.304 2.232c0.034 0.244 0.151 0.467 0.329 0.63 0.177 0.168 0.406 0.266 0.646 0.276h1.266c0.336 0 0.658 0.138 0.895 0.384s0.371 0.58 0.371 0.928-0.133 0.682-0.371 0.928c-0.237 0.246-0.559 0.384-0.895 0.384h-0.152zM24.297 13.259c-2.671 0.538-4.949 0.643-7.367-1.313-3-2.455-6.633-1.667-10.127-0.381l-0.633-5.566c-0.012-0.056-0.012-0.114 0-0.171 0.017-0.055 0.048-0.105 0.089-0.144 0.030-0.048 0.074-0.085 0.127-0.105 0.050-0.015 0.102-0.015 0.152 0h18.38c0.047 0.028 0.090 0.063 0.127 0.105 0.038 0.039 0.063 0.091 0.076 0.144 0.019 0.060 0.019 0.124 0 0.184l-0.823 7.246z"></path>
</symbol>                                                                    <symbol id="icon-Ellipse-13" viewBox="0 0 32 32">
<path d="M32 16c0 8.837-7.163 16-16 16s-16-7.163-16-16c0-8.837 7.163-16 16-16s16 7.163 16 16z"></path>
</symbol> 
<symbol id="icon-eye" viewBox="0 0 32 32">
<path stroke-linejoin="round" stroke-linecap="round" stroke-miterlimit="4" stroke-width="2.88" d="M1.333 16c0 0 5.333-10.667 14.667-10.667s14.667 10.667 14.667 10.667c0 0-5.333 10.667-14.667 10.667s-14.667-10.667-14.667-10.667z"></path>
<path stroke-linejoin="round" stroke-linecap="round" stroke-miterlimit="4" stroke-width="2.88" d="M16 20c2.209 0 4-1.791 4-4s-1.791-4-4-4c-2.209 0-4 1.791-4 4s1.791 4 4 4z"></path>
</symbol>  
</svg>