<!-- Generated by IcoMoon.io -->
<svg version="1.1" xmlns="http://www.w3.org/2000/svg" width="1024" height="1024" viewBox="0 0 1024 1024">
<g id="icomoon-ignore">
</g>
<path fill="#9be1a0" d="M882.163 167.222c-3.096-10.259-8.319-19.727-15.322-27.769-7.001-8.042-15.621-14.472-25.277-18.857-9.591-4.548-20.070-6.846-30.658-6.721h-596.148c-10.583-0.603-21.141 1.567-30.657 6.301-9.867 4.434-18.639 11.034-25.685 19.322-6.999 8.028-12.225 17.48-15.328 27.723-3.211 10.163-4.2 20.914-2.9 31.504l67.942 588.073c4.557 40.241 23.614 77.29 53.442 104.173 29.156 26.85 67.082 41.814 106.471 42.006h289.994c39.518-0.17 77.581-15.128 106.884-42.006 29.44-27.144 48.26-64.121 53.030-104.173l36.869-330.582v-5.039l28.586-252.031c1.603-10.624 1.183-21.461-1.242-31.924zM463.74 812.002h-41.429c-26.837-1.514-52.383-12.172-72.499-30.246-20.043-18.313-33.218-43.1-37.284-70.147l-9.944-72.251c-1.275-11.013 1.752-22.094 8.435-30.874 6.683-8.777 16.489-14.554 27.322-16.090 10.83-1.539 21.825 1.285 30.628 7.866 8.804 6.578 14.716 16.392 16.473 27.338l9.941 71.408c1.116 7.807 4.934 14.953 10.771 20.162 5.791 5.387 13.277 8.515 21.129 8.823h41.429c10.986 0 21.523 4.425 29.294 12.301 7.769 7.879 12.132 18.564 12.132 29.704s-4.363 21.825-12.132 29.701c-7.772 7.877-18.308 12.304-29.294 12.304h-4.972zM795.163 424.294c-87.412 17.222-161.983 20.582-241.112-42.006-98.183-78.552-217.083-53.348-331.423-12.183l-20.714-178.101c-0.408-1.797-0.408-3.664 0-5.461 0.564-1.765 1.562-3.355 2.9-4.62 0.98-1.55 2.436-2.731 4.143-3.361 1.625-0.467 3.346-0.467 4.971 0h601.534c1.555 0.881 2.956 2.016 4.145 3.361 1.242 1.26 2.070 2.898 2.485 4.62 0.633 1.908 0.633 3.973 0 5.881l-26.929 231.87z"></path>
</svg>
